name analog
datacolumns 19
datarows 23
range 0.3195 0.3305
endheader
time	ground_force_vx	ground_force_vy	ground_force_vz	ground_force_px	ground_force_py	ground_force_pz	l_ground_force_vx	l_ground_force_vy	l_ground_force_vz	l_ground_force_px	l_ground_force_py	l_ground_force_pz	ground_torque_x	ground_torque_y	ground_torque_z	l_ground_torque_x	l_ground_torque_y	l_ground_torque_z
0.3195	-0.0	-0.0	-0.0	-0.0	-0.0	-0.0	-5.701492786407471	2.979640007019043	-780.708984375	-0.0	-0.0	-0.0	-0.0	-0.0	-0.0	240427.25	31659.59765625	-1671.071044921875
0.32	-0.0	-0.0	-0.0	-0.0	-0.0	-0.0	-6.199419021606445	2.8352982997894287	-782.099609375	-0.0	-0.0	-0.0	-0.0	-0.0	-0.0	241030.984375	31272.2421875	-1783.09912109375
0.3205	-0.0	-0.0	-0.0	-0.0	-0.0	-0.0	-6.146880149841309	2.9427297115325928	-783.7568969726562	-0.0	-0.0	-0.0	-0.0	-0.0	-0.0	241175.765625	31341.349609375	-1996.9564208984373
0.321	-0.0	-0.0	-0.0	-0.0	-0.0	-0.0	-6.47589921951294	2.7863502502441406	-784.7153930664062	-0.0	-0.0	-0.0	-0.0	-0.0	-0.0	241367.6875	31223.30859375	-2020.58447265625
0.3215	-0.0	-0.0	-0.0	-0.0	-0.0	-0.0	-6.608193397521973	2.5690574645996094	-783.3306884765625	-0.0	-0.0	-0.0	-0.0	-0.0	-0.0	241406.21875	30938.962890625	-2088.692138671875
0.322	-0.0	-0.0	-0.0	-0.0	-0.0	-0.0	-6.563066005706787	2.471482038497925	-784.543701171875	-0.0	-0.0	-0.0	-0.0	-0.0	-0.0	241115.296875	30781.978515625	-2287.65869140625
0.3225	-0.0	-0.0	-0.0	-0.0	-0.0	-0.0	-6.542402267456055	1.8382294178009035	-783.3216552734375	-0.0	-0.0	-0.0	-0.0	-0.0	-0.0	240919.953125	30565.3828125	-2230.73095703125
0.323	-0.0	-0.0	-0.0	-0.0	-0.0	-0.0	-6.429944038391113	1.6798197031021118	-782.109619140625	-0.0	-0.0	-0.0	-0.0	-0.0	-0.0	240433.859375	30240.771484375	-2291.049072265625
0.3235	-0.0	-0.0	-0.0	-0.0	-0.0	-0.0	-6.652450084686279	1.850916147232056	-781.6832885742188	-0.0	-0.0	-0.0	-0.0	-0.0	-0.0	239932.09375	30239.666015625	-2504.300537109375
0.324	-0.0	-0.0	-0.0	-0.0	-0.0	-0.0	-6.747329711914063	0.8937904238700867	-781.0382080078125	-0.0	-0.0	-0.0	-0.0	-0.0	-0.0	239749.578125	30131.857421875	-2586.52685546875
0.3245	-0.0	-0.0	-0.0	-0.0	-0.0	-0.0	-7.207799434661865	0.4069298505783081	-780.29541015625	-0.0	-0.0	-0.0	-0.0	-0.0	-0.0	239921.71875	29640.787109375	-2616.1953125
0.325	-0.0	-0.0	-0.0	-0.0	-0.0	-0.0	-6.787290096282959	0.3110194504261017	-780.3760986328125	-0.0	-0.0	-0.0	-0.0	-0.0	-0.0	239519.921875	29314.36328125	-2659.059814453125
0.3255	-0.0	-0.0	-0.0	-0.0	-0.0	-0.0	-5.9707465171813965	0.1555097252130508	-781.2420654296875	-0.0	-0.0	-0.0	-0.0	-0.0	-0.0	239856.265625	28921.78125	-2570.464111328125
0.326	-0.0	-0.0	-0.0	-0.0	-0.0	-0.0	-5.415377616882324	-0.2689669728279114	-784.1629638671875	-0.0	-0.0	-0.0	-0.0	-0.0	-0.0	240208.859375	28294.365234375	-2408.72314453125
0.3265	-0.0	-0.0	-0.0	-0.0	-0.0	-0.0	-4.378355026245117	-0.4954984784126282	-783.2568969726562	-0.0	-0.0	-0.0	-0.0	-0.0	-0.0	240280.09375	27908.5859375	-2243.564208984375
0.327	-0.0	-0.0	-0.0	-0.0	-0.0	-0.0	-3.906420946121216	-0.3186188042163849	-784.55615234375	-0.0	-0.0	-0.0	-0.0	-0.0	-0.0	240483.5	27410.119140625	-2137.607177734375
0.3275	-0.0	-0.0	-0.0	-0.0	-0.0	-0.0	-2.975088596343994	-0.5626529455184937	-784.820556640625	-0.0	-0.0	-0.0	-0.0	-0.0	-0.0	240756.421875	26776.072265625	-1922.82470703125
0.328	-0.0	-0.0	-0.0	-0.0	-0.0	-0.0	-2.9297046661376958	-0.6272072196006775	-784.8662719726562	-0.0	-0.0	-0.0	-0.0	-0.0	-0.0	240761.609375	26507.1953125	-1839.909423828125
0.3285	-0.0	-0.0	-0.0	-0.0	-0.0	-0.0	-2.5771825313568115	-0.0545286685228347	-786.8689575195312	-0.0	-0.0	-0.0	-0.0	-0.0	-0.0	240848.171875	26138.728515625	-1783.97314453125
0.329	-0.0	-0.0	-0.0	-0.0	-0.0	-0.0	-2.6169795989990234	-0.1896046102046966	-785.4352416992188	-0.0	-0.0	-0.0	-0.0	-0.0	-0.0	241037.390625	26003.484375	-1941.3350830078125
0.3295	-0.0	-0.0	-0.0	-0.0	-0.0	-0.0	-2.2663846015930176	-0.2440214306116104	-786.8057861328125	-0.0	-0.0	-0.0	-0.0	-0.0	-0.0	241760.875	25805.580078125	-1884.759521484375
0.33	-0.0	-0.0	-0.0	-0.0	-0.0	-0.0	-2.390216827392578	-0.0808927714824676	-788.3648071289062	-0.0	-0.0	-0.0	-0.0	-0.0	-0.0	241988.015625	25657.33203125	-1932.378173828125
0.3305	-0.0	-0.0	-0.0	-0.0	-0.0	-0.0	-1.669084906578064	1.1556642055511477	-789.2421264648438	-0.0	-0.0	-0.0	-0.0	-0.0	-0.0	242651.1875	25458.71875	-1819.5260009765625
